# xmcd
#
# Track frame offsets: 
#        150
#        13930
#        28662
#        44318
#        61424
#        75010
#        87034
#        102315
#        114046
#        144216
#        164209
#        177726
#        199698
#        217373
#        234253
#        255358
#        269322
#        286410
#        303094
#        317916
#
# Disc length: 4393 seconds
#
# Revision: 1
# Processed by: cddbd v1.5.2PL0 Copyright (c) Steve Scherf et al.
# Submitted via: ExactAudioCopyFreeDBPlugin 1.0
#
DISCID=10112714
DTITLE=Wilson Pickett - Mr. Magic Man:  The Complete RCA Studio Record
DTITLE=ings
DYEAR=2015
DGENRE=Soul
TTITLE0=Iron it Out
TTITLE1=Isn't That So
TTITLE2=Take a Look
TTITLE3=I Was Too Nice
TTITLE4=Don't Pass Me By
TTITLE5=What Good is a Lie
TTITLE6=Young Boy Blues
TTITLE7=Take Your Pleasure Where Your Find It
TTITLE8=You're the One
TTITLE9=Join Me and Let's Be Free
TTITLE10=Let's Make Love Right
TTITLE11=I've Got a Good Friend
TTITLE12=Smokin' in the United Nations
TTITLE13=Gone
TTITLE14=Good Things
TTITLE15=Higher Consciousness
TTITLE16=Bailin' Hay on a Rainy Day
TTITLE17=Mighty Mouth
TTITLE18=Isn't That So (mono promo version)
TTITLE19=Take Your Pleasure Where You Find It (mono promo version)
EXTD=
EXTT0=
EXTT1=
EXTT2=
EXTT3=
EXTT4=
EXTT5=
EXTT6=
EXTT7=
EXTT8=
EXTT9=
EXTT10=
EXTT11=
EXTT12=
EXTT13=
EXTT14=
EXTT15=
EXTT16=
EXTT17=
EXTT18=
EXTT19=
PLAYORDER=
